<?xml version="1.0" encoding="utf-8"?>
<!-- Generator: Adobe Illustrator 25.2.0, SVG Export Plug-In . SVG Version: 6.00 Build 0)  -->
<svg version="1.1" id="WWF_x5F_Logo_x5F_RGB_x5F_pride_x5F_2021-edition"
	 xmlns="http://www.w3.org/2000/svg" xmlns:xlink="http://www.w3.org/1999/xlink" x="0px" y="0px" viewBox="0 0 82 92"
	 style="enable-background:new 0 0 82 92;" xml:space="preserve">
<style type="text/css">
	.st0{display:none;}
	.st1{display:inline;}
	.st2{fill:none;}
	.st3{fill:#750787;}
	.st4{fill:#004DFF;}
	.st5{fill:#008026;}
	.st6{fill:#FFED00;}
	.st7{fill:#FF8C00;}
	.st8{fill:#E40303;}
	.st9{fill:#FFFFFF;}
	.st10{fill:#FFAFC8;}
	.st11{fill:#74D7EE;}
	.st12{fill:#613915;}
</style>
<g class="st0">
	<path class="st1" d="M28.7,84.8c-0.7,0-1.4,0.5-1.6,1.1l-3.3,8.3l-0.3,0.9l-0.3-1l-2.5-8.1c0,0,0-0.1,0-0.1v0
		c-0.2-0.7-0.9-1.2-1.6-1.2h-4.1c-0.9,0.1-1.7,0.8-1.7,1.7c0,0.2,0.1,0.6,0.2,0.9l0.5,1.7l-2,5.1l-0.3,0.9l-0.3-0.9l-2.5-8.1
		c0,0,0-0.1,0-0.1v0c-0.2-0.7-0.9-1.2-1.6-1.2H3.1c-0.9,0.1-1.7,0.8-1.7,1.7c0,0.2,0.1,0.6,0.2,0.9l6.1,18.3
		c0.2,0.8,0.9,1.3,1.7,1.3c0.8,0,1.4-0.5,1.6-1.2L15.4,95l0.3-1l0.3,1l3.6,10.8c0.2,0.8,0.9,1.3,1.7,1.3c0.8,0,1.4-0.5,1.7-1.3
		l7.3-18.6c0.1-0.2,0.2-0.5,0.2-0.7C30.4,85.5,29.6,84.8,28.7,84.8"/>
	<path class="st1" d="M59.3,84.8c-0.7,0-1.4,0.5-1.6,1.1l-3.3,8.3l-0.3,0.9l-0.2-1l-2.6-8.1c0,0,0-0.1,0-0.1v0
		c-0.2-0.7-0.9-1.2-1.6-1.2h-4.1c-0.9,0.1-1.6,0.8-1.6,1.7c0,0.2,0.1,0.6,0.2,0.9l0.5,1.7l-2,5.1l-0.3,0.9l-0.2-0.9l-2.5-8.1
		c0,0,0-0.1,0-0.1v0c-0.2-0.7-0.9-1.2-1.6-1.2h-4.1c-0.9,0.1-1.7,0.8-1.7,1.7c0,0.2,0.1,0.6,0.2,0.9l6.2,18.3
		c0.2,0.8,0.9,1.3,1.7,1.3c0.8,0,1.4-0.5,1.6-1.2L46.1,95l0.3-1l0.3,1l3.6,10.8c0.2,0.8,0.9,1.3,1.7,1.3c0.8,0,1.5-0.5,1.7-1.3
		l7.3-18.6c0.1-0.2,0.2-0.5,0.2-0.7C61.1,85.5,60.3,84.8,59.3,84.8"/>
	<path class="st1" d="M79.3,84.8H64.9c-0.8,0-1.5,0.7-1.5,1.5v0v3.6v15.5c0,0,0,0,0,0h0c0,0.9,0.7,1.6,1.6,1.6h4.1
		c0.9,0,1.6-0.7,1.6-1.6v-8.9c0,0,5.8,0,5.9,0c0.9,0,1.5-0.7,1.5-1.6c0-0.9-0.7-1.6-1.6-1.6h-5.8l0-5.1h8.7c0.9,0,1.6-0.8,1.6-1.7
		C80.9,85.5,80.2,84.8,79.3,84.8"/>
	<path class="st1" d="M77,75.8c-1.9,0-3.4,1.5-3.4,3.4c0,1.9,1.5,3.4,3.4,3.4c1.9,0,3.4-1.5,3.4-3.4C80.4,77.3,78.8,75.8,77,75.8
		 M79.8,79.2c0,1.6-1.3,2.9-2.9,2.9c-1.6,0-2.9-1.3-2.9-2.9c0-1.6,1.3-2.9,2.9-2.9C78.5,76.3,79.8,77.6,79.8,79.2"/>
	<path class="st1" d="M76.4,79v-1H77c0.3,0,0.7,0.1,0.7,0.5c0,0.5-0.4,0.5-0.8,0.5H76.4z M76.4,79.4h0.6l0.9,1.4h0.5l-0.9-1.4
		c0.5-0.1,0.8-0.3,0.8-0.9c0-0.6-0.4-0.9-1.1-0.9h-1.3v3.2h0.5V79.4z"/>
</g>
<g>
	<path class="st2" d="M53.8,59.7c0,0,0-0.1,0-0.1c0-0.1-0.2,0-0.2,0c-2.2,0-5.5-0.4-8.9-1.2c-0.1,0-0.3-0.1-0.3,0.1
		c0,0.4,0.2,0.8,0.3,1.1C46.2,62.5,52.4,63.2,53.8,59.7z"/>
	<path class="st2" d="M19.3,86.2c0-1.6-1.3-2.9-2.9-2.9c-1.6,0-2.9,1.3-2.9,2.9c0,1.6,1.3,2.9,2.9,2.9C18,89.1,19.3,87.8,19.3,86.2z
		 M14.9,86.2c0-1,0.6-1.7,1.6-1.7c0.7,0,1.3,0.4,1.4,1.2h-0.5C17.4,85.3,17,85,16.6,85c-0.7,0-1.1,0.5-1.1,1.2
		c0,0.7,0.4,1.3,1.1,1.3c0.5,0,0.8-0.3,0.9-0.7H18c-0.1,0.7-0.7,1.2-1.4,1.2C15.6,88,14.9,87.2,14.9,86.2z"/>
	<path class="st3" d="M56.3,77.8c-3,12.2,6.5,11,13.1,6.6c1.9-1.2,3.9-4.4,5.7-8.6H56.6C56.5,76.5,56.4,77.2,56.3,77.8z"/>
	<path class="st3" d="M12.4,79.6c1.6,0.7,3.3,1,5.2,1.1c6,0,6.4-1.9,5.6-4.8h-7.1L12.4,79.6z"/>
	<path class="st3" d="M19.9,86.2c0-1.9-1.5-3.4-3.4-3.4c-1.9,0-3.4,1.6-3.4,3.4c0,1.9,1.5,3.5,3.4,3.5
		C18.4,89.7,19.9,88.1,19.9,86.2z M13.6,86.2c0-1.6,1.3-2.9,2.9-2.9c1.6,0,2.9,1.3,2.9,2.9c0,1.6-1.3,2.9-2.9,2.9
		C14.9,89.1,13.6,87.8,13.6,86.2z"/>
	<path class="st3" d="M18,86.8h-0.5c-0.1,0.4-0.4,0.7-0.9,0.7c-0.7,0-1.1-0.6-1.1-1.3c0-0.7,0.4-1.2,1.1-1.2c0.5,0,0.8,0.3,0.9,0.7
		h0.5c-0.1-0.8-0.7-1.2-1.4-1.2c-1,0-1.6,0.7-1.6,1.7c0,1,0.6,1.7,1.6,1.7C17.3,88,17.8,87.5,18,86.8z"/>
	<path class="st3" d="M47.9,91.7c9-1.2,4-5.6,3.5-8.2c-0.9-2.9-1.3-5.4-1.5-7.7H26.1C30.6,85.4,35.8,92.6,47.9,91.7z"/>
	<path class="st4" d="M23.3,75.9c-0.4-1.6-1.2-3.5-1.5-5.6l-5.6,5.6H23.3z"/>
	<path class="st4" d="M53.8,59.7c-1.3,3.5-7.6,2.8-9.1-0.1H32.4L23,69c1,2.4,2,4.7,3.1,6.9h23.8c-1.2-14.5,9.5-16.5,6.8,0h18.5
		c1.9-4.5,3.7-10.2,4.8-16.3H53.8C53.8,59.6,53.8,59.6,53.8,59.7z"/>
	<path class="st5" d="M45.4,52.7c1.4,0.5,2.3,0.6,3.4,2.2c1.1,2.1,0.6-0.6,4.7-1.1c2.7-0.3,2.1-2.8,0-3.4c-1.8-0.5-4.6-0.9-6.6-0.9
		C43.5,49.5,43.6,52.2,45.4,52.7z"/>
	<path class="st5" d="M60,55.1c-3.4,0-2.4,5.4-8.5,2.7c-4.4-3-7,2.9-10.2-3.4c-0.4-1.1-0.9-1.7-1.5-2.2l-7.4,7.4h12.3
		c-0.2-0.3-0.3-0.7-0.3-1.1c0-0.2,0.2-0.1,0.3-0.1c3.4,0.8,6.7,1.2,8.9,1.2c0.1,0,0.2,0,0.2,0h26.2c1-5.4,1.6-11.1,1.4-16.3h-3.9
		C74.8,49.9,69,55.1,60,55.1z"/>
	<path class="st5" d="M66.4,47.4c1.4-0.7,2.3-2.3,2.6-4.1h-10C60.4,46.5,62,49.7,66.4,47.4z"/>
	<path class="st6" d="M79.1,33.6c0.1,3.3-0.5,6.6-1.7,9.7h3.9c-0.1-3.4-0.6-6.7-1.4-9.5C79.6,32.7,79.1,32.8,79.1,33.6z"/>
	<path class="st6" d="M65,33.4c-4.3-2.5-6.6,0.9-8.1,5c-0.1,0.3-0.1,0.7,0,0.8c0.8,0.9,1.5,2.5,2.1,4.1h10
		C69.7,39.9,68.5,35.4,65,33.4z"/>
	<path class="st6" d="M46.8,37.8c0.1-0.1,0.3-0.4,0.3-0.6c0-4.7-2.5-9.2-7.4-7c-0.9,0.5-1.7,1-2.3,1.6l7.8,7.8
		C45.6,39,46.2,38.3,46.8,37.8z"/>
	<path class="st7" d="M66.9,15.2c1.5,0.6,4.1,2.7,5.4,4.4c2.8,3.9,7.2-0.1,8.9-3.5c0.8-1.5,0.9-3.4,0.1-5.4H65.4
		C64.5,13,65.1,14.4,66.9,15.2z"/>
	<path class="st7" d="M32.5,15.8c2.3,1.4,3.1,1.6,5.5-0.7c1.3-1.2,3.4-2.5,4.5-2.9c1.1-0.4,2-0.8,2.5-1.5H28.9c0.3,1.1,1,2.3,2,3.5
		c-2.4,1.6-4.4,3.4-6.1,5.2l3.4,3.4C29.3,20.4,30.7,18.1,32.5,15.8z"/>
	<path class="st8" d="M44.5,4.7c-3.1-6.8-9.4-4.9-12.2-2.5c-2.5,2-4.4,5-3.3,8.5h16.2C45.9,9.7,45.9,8,44.5,4.7z"/>
	<path class="st8" d="M66.3,8.7c-0.4,0.7-0.8,1.4-1,2h15.9c-0.5-1.3-1.4-2.5-2.6-3.7C75.7,4.2,69.7,3.1,66.3,8.7z"/>
	<path class="st9" d="M0.2,39.5c-0.1,2.5,0,4.9,0.4,7.1L4,43.3L0.2,39.5z"/>
	<path class="st10" d="M5.9,34.2l-4-4c-1,3.1-1.6,6.3-1.7,9.3L4,43.3l-3.4,3.4c0.2,1.2,0.4,2.4,0.7,3.6c0.7,2.8,0.5,4.4,0.4,6.3
		l7.7-7.7C7.1,44.5,5.7,39.4,5.9,34.2z"/>
	<path class="st11" d="M14.3,55.4c-1.9-1.8-3.5-4.1-4.9-6.5l-7.7,7.7c-0.1,1.8,0,3.9,1,7.4c0.3,0.8,0.5,1.5,0.7,2.2L14.3,55.4z"/>
	<path class="st11" d="M17.7,34.6c-0.2,1.9-0.3,3.8-0.2,5.6c0.2,6.9-1.1,8-0.4,12.4l9.4-9.3L17.7,34.6z"/>
	<path class="st11" d="M8,24.9l-2.3-2.3C4,25,2.8,27.6,1.9,30.2l4,4C6,31.1,6.7,27.9,8,24.9z"/>
	<path class="st12" d="M32.2,48.5c-4.6-3.7-6.9-9.9-6.3-16.8L20.2,26c-1.4,2.9-2.1,5.7-2.5,8.6l8.7,8.7l-9.4,9.3
		c0.2,1.3,0.6,2.8,1.2,4.9c0.3,0.8-0.3,0.8-0.7,0.5c-1.2-0.7-2.3-1.6-3.3-2.6L3.5,66.2c1.2,3.3,2.3,5.8,3.4,7.7L32.2,48.5z"/>
	<path class="st12" d="M36.7,44l0.7-0.7l-3.2-3.2C34.6,41.8,35.4,43.2,36.7,44z"/>
	<path class="st12" d="M12.4,18.2l-1.2-1.2c-2.2,1.7-3.9,3.7-5.4,5.7L8,24.9C9,22.6,10.5,20.3,12.4,18.2z"/>
	<path d="M39.8,52.2c-0.5-0.3-1-0.6-1.5-0.7c-2.3-0.6-4.3-1.6-6-3L6.9,73.9c1.8,3.1,3.6,4.8,5.6,5.6l3.7-3.7l5.6-5.6
		c-0.2-0.9-0.3-1.9-0.2-2.9c0-0.4,0.5-0.6,0.8,0.2c0.2,0.5,0.4,1,0.6,1.4l9.4-9.4L39.8,52.2z"/>
	<path d="M37.5,43.3L36.7,44c0.1,0.1,0.2,0.2,0.3,0.2c4,1.7,6-1.8,8-4.5l-7.8-7.8c-2.7,2.4-3.5,5.6-3.1,8.2L37.5,43.3z"/>
	<path d="M25.9,31.7c0.2-2.9,1-5.9,2.3-8.9l-3.4-3.4c-2,2.1-3.5,4.4-4.6,6.6L25.9,31.7z"/>
	<path d="M17.8,13.4c0.4-0.4,0.3-0.9-1.3,0c-2,1.1-3.8,2.3-5.4,3.5l1.2,1.2C13.9,16.5,15.7,14.8,17.8,13.4z"/>
</g>
</svg>
